# xmcd CD database file
#
# Track frame offsets:
#	150
#	16614
#	29515
#	50352
#	65539
#	81893
#	106001
#	122720
#	144123
#	165461
#	186141
#	207300
#
# Disc length: 3009 seconds
#
# Revision: 0
# Processed by: cddbd v1.5.2PL0 Copyright (c) Steve Scherf et al.
# Submitted via: CDex 1.70beta2
#
DISCID=930bbf0c
DTITLE=Agot Isidro - The Island
DYEAR=1900
DGENRE=Jazz
TTITLE0=I Wish That I Was Making Love To You Tonight
TTITLE1=Alone At Last
TTITLE2=Bato Sa Buhangin
TTITLE3=I'll Tumble For You
TTITLE4=Corcovado
TTITLE5=Dindi
TTITLE6=So Many Stars
TTITLE7=As
TTITLE8=Lanca Perfume
TTITLE9=Waters of March
TTITLE10=Hanggang Kailan
TTITLE11=The Island
EXTD=
EXTT0=
EXTT1=
EXTT2=
EXTT3=
EXTT4=
EXTT5=
EXTT6=
EXTT7=
EXTT8=
EXTT9=
EXTT10=
EXTT11=
PLAYORDER=
